<?xml version="1.0" encoding="utf-8"?>
<!-- Generator: Adobe Illustrator 16.0.0, SVG Export Plug-In . SVG Version: 6.00 Build 0)  -->
<!DOCTYPE svg PUBLIC "-//W3C//DTD SVG 1.1//EN" "http://www.w3.org/Graphics/SVG/1.1/DTD/svg11.dtd">
<svg version="1.1" id="Capa_1" xmlns="http://www.w3.org/2000/svg" xmlns:xlink="http://www.w3.org/1999/xlink" x="0px" y="0px"
	 width="14.667px" height="16.961px" viewBox="0 0 14.667 16.961" enable-background="new 0 0 14.667 16.961" xml:space="preserve">
<g>
	<path fill="#615156" d="M11.45,6.964c0-2.273-1.842-4.116-4.115-4.116S3.217,4.691,3.217,6.964c-0.01,0.539,0.102,1.046,0.299,1.53
		c0.01,0.028,0.02,0.056,0.031,0.083c0.047,0.109,0.1,0.217,0.156,0.323C3.708,8.91,3.711,8.919,3.717,8.928
		c0.619,1.175,1.74,2.226,2.912,3.283l0,0c0,0,0.145,0.123,0,0.395l-0.406,0.76c-0.004,0.01-0.17,0.367,0.152,0.414h2.066
		c0.127-0.021,0.324-0.099,0.158-0.383l0,0l-0.484-0.832c0,0-0.139-0.22-0.002-0.337c0.369-0.312,0.949-0.807,1.164-1.018
		c0.77-0.791,1.586-1.821,1.961-2.922c0.025-0.089,0.047-0.176,0.066-0.258c0.068-0.252,0.111-0.512,0.131-0.78
		C11.452,7.068,11.45,6.964,11.45,6.964z"/>
	<path fill="#FFFFFF" d="M7.641,4.366c-0.365-0.097-0.76-0.111-1.154-0.02C5.18,4.646,4.368,5.948,4.668,7.252
		c0.016,0.071,0.037,0.138,0.061,0.206C4.768,7.537,4.85,7.65,4.991,7.614c0.213-0.053,0.271-0.175,0.27-0.354
		c0-0.002,0.002-0.004,0.002-0.006c-0.043-1.14,0.725-2.186,1.877-2.451c0.145-0.034,0.287-0.052,0.43-0.059l0,0
		c0,0,0.002,0,0.004,0c0.004,0,0.008,0,0.012,0c0.037-0.001,0.129-0.02,0.148-0.166C7.749,4.464,7.7,4.389,7.641,4.366z"/>
</g>
</svg>
