<?xml version="1.0" encoding="utf-8"?>
<!-- Generator: Adobe Illustrator 16.0.0, SVG Export Plug-In . SVG Version: 6.00 Build 0)  -->
<!DOCTYPE svg PUBLIC "-//W3C//DTD SVG 1.1//EN" "http://www.w3.org/Graphics/SVG/1.1/DTD/svg11.dtd">
<svg version="1.1" id="Capa_1" xmlns="http://www.w3.org/2000/svg" xmlns:xlink="http://www.w3.org/1999/xlink" x="0px" y="0px"
	 width="33.832px" height="33.704px" viewBox="0 0 33.832 33.704" enable-background="new 0 0 33.832 33.704" xml:space="preserve">
<path fill="#D94255" d="M16.916,0.764c-8.885,0-16.088,7.203-16.088,16.088c0,8.885,7.203,16.088,16.088,16.088
	c8.884,0,16.087-7.203,16.087-16.088C33.003,7.967,25.8,0.764,16.916,0.764z M20.216,20.564c0.445,0.371,0.742,1.634,0.742,2.228
	v5.199h-2.971h-2.971c0,0,0-1.783,0-2.972c-4.084,0.892-5.197-2.228-5.197-2.228c-0.743-1.485-1.485-2.229-1.485-2.229
	c-1.485-0.891,0-0.742,0-0.742c1.485,0,2.228,1.484,2.228,1.484c1.337,2.229,3.639,1.855,4.455,1.484
	c0-0.742,0.298-1.855,0.743-2.228c-3.268-0.371-5.94-2.228-5.94-5.94c0-3.712,0.742-4.455,1.485-5.198
	c-0.149-0.371-0.743-1.707,0-3.713c0,0,1.485,0,2.97,2.229c0.742-0.742,2.97-0.742,3.713-0.742c0.742,0,2.972,0,3.714,0.742
	c1.483-2.229,2.969-2.229,2.969-2.229c0.817,2.006,0.148,3.342,0,3.713c0.742,0.743,1.486,1.485,1.486,5.198
	C26.158,18.334,23.483,20.193,20.216,20.564z"/>
</svg>
