<?xml version="1.0" encoding="utf-8"?>
<!-- Generator: Adobe Illustrator 16.0.0, SVG Export Plug-In . SVG Version: 6.00 Build 0)  -->
<!DOCTYPE svg PUBLIC "-//W3C//DTD SVG 1.1//EN" "http://www.w3.org/Graphics/SVG/1.1/DTD/svg11.dtd">
<svg version="1.1" id="Capa_1" xmlns="http://www.w3.org/2000/svg" xmlns:xlink="http://www.w3.org/1999/xlink" x="0px" y="0px"
	 width="79px" height="76.939px" viewBox="0 0 79 76.939" enable-background="new 0 0 79 76.939" xml:space="preserve">
<g>
	<g id="Frame_1_">
		<g>
			<rect fill="#F7A932" width="78.997" height="76.939"/>
		</g>
	</g>
	<g id="Background_1_">
		<g>
			<rect x="6.017" y="6.177" fill="#3B3323" width="66.804" height="64.586"/>
		</g>
	</g>
	<g id="Shadow2_1_" opacity="0.302">
		<g>
			<path fill="#010202" d="M56.517,21.53c0.158,0.105-4.433,4.908-4.433,4.908l5.918,4.663l-5.443,4.044l-13.615-13.14l-6.49,1.583
				l-4.116,13.14l-7.441,17.889l22.797,16.147h29.129V34.67C72.822,34.67,56.358,21.425,56.517,21.53z"/>
		</g>
	</g>
	<g id="Shadow_2_" opacity="0.302">
		<g>
			<rect x="6.017" y="6.174" fill="#010202" width="66.804" height="2.216"/>
		</g>
	</g>
	<g id="Ai">
		<g>
			<path fill="#F7A932" d="M29.921,45.364l-2.805,9.237h-6.142l10.446-32.596h7.593l10.591,32.596h-6.384l-2.95-9.237H29.921z
				 M39.256,40.867l-2.563-8.029c-0.628-1.982-1.161-4.207-1.645-6.093h-0.097c-0.483,1.886-0.967,4.16-1.548,6.093l-2.514,8.029
				H39.256z"/>
			<path fill="#F7A932" d="M58.31,24.471c0,1.79-1.305,3.192-3.385,3.192c-1.983,0-3.289-1.403-3.289-3.192
				c0-1.837,1.354-3.24,3.337-3.24C57.005,21.231,58.262,22.634,58.31,24.471z M51.975,54.602V31.049h5.997v23.553H51.975
				L51.975,54.602z"/>
		</g>
	</g>
</g>
</svg>
