<?xml version="1.0" encoding="utf-8"?>
<!-- Generator: Adobe Illustrator 16.0.0, SVG Export Plug-In . SVG Version: 6.00 Build 0)  -->
<!DOCTYPE svg PUBLIC "-//W3C//DTD SVG 1.1//EN" "http://www.w3.org/Graphics/SVG/1.1/DTD/svg11.dtd">
<svg version="1.1" id="Capa_1" xmlns="http://www.w3.org/2000/svg" xmlns:xlink="http://www.w3.org/1999/xlink" x="0px" y="0px"
	 width="79px" height="76.939px" viewBox="0 0 79 76.939" enable-background="new 0 0 79 76.939" xml:space="preserve">
<g>
	<path fill="#DC395F" d="M71.839,0H7.161C3.206,0,0,3.122,0,6.973v62.981c0,3.852,3.206,6.974,7.161,6.974h64.678
		c3.955,0,7.161-3.122,7.161-6.974V6.973C79,3.122,75.794,0,71.839,0"/>
	<path fill="#FFFFFF" d="M26.709,24.203c2.558,0,4.699-2.004,4.699-4.631c0-2.625-2.142-4.629-4.699-4.629
		c-2.557,0-4.699,2.004-4.699,4.629C22.01,22.199,24.152,24.203,26.709,24.203"/>
	<path fill="#FFFFFF" d="M16.965,49.001c-0.276,1.175-0.415,2.443-0.415,3.479c0,4.078,2.211,6.785,6.911,6.785
		c3.898,0,7.057-2.314,9.332-6.053l-1.389,5.576h7.74l4.423-17.741c1.105-4.492,3.247-6.823,6.496-6.823
		c2.557,0,4.146,1.59,4.146,4.215c0,0.761-0.068,1.59-0.346,2.488l-2.28,8.155c-0.347,1.174-0.483,2.35-0.483,3.455
		c0,3.871,2.28,6.703,7.049,6.703c4.077,0,7.324-2.625,9.122-8.914l-3.041-1.174c-1.521,4.214-2.833,4.976-3.869,4.976
		c-1.037,0-1.59-0.691-1.59-2.073c0-0.621,0.139-1.312,0.345-2.143l2.212-7.945c0.553-1.865,0.761-3.52,0.761-5.04
		c0-5.943-3.594-9.044-7.947-9.044c-4.078,0-8.225,3.677-10.298,7.548l1.521-6.947H33.547l-1.659,6.119h5.528l-3.404,13.631
		c-2.674,5.943-7.585,6.04-8.201,5.902c-1.012-0.229-1.659-0.613-1.659-1.929c0-0.758,0.138-1.848,0.484-3.162l5.183-20.561h-13.13
		l-1.659,6.119h5.459L16.965,49.001"/>
</g>
</svg>
