<?xml version="1.0" encoding="utf-8"?>
<!-- Generator: Adobe Illustrator 16.0.0, SVG Export Plug-In . SVG Version: 6.00 Build 0)  -->
<!DOCTYPE svg PUBLIC "-//W3C//DTD SVG 1.1//EN" "http://www.w3.org/Graphics/SVG/1.1/DTD/svg11.dtd">
<svg version="1.1" id="Capa_1" xmlns="http://www.w3.org/2000/svg" xmlns:xlink="http://www.w3.org/1999/xlink" x="0px" y="0px"
	 width="33.832px" height="33.704px" viewBox="0 0 33.832 33.704" enable-background="new 0 0 33.832 33.704" xml:space="preserve">
<path fill="#D63435" d="M25.944,24.433v-6.279c0-3.365-1.797-4.932-4.19-4.932c-1.934,0-2.799,1.064-3.281,1.811V13.48H14.83
	c0.049,1.027,0,10.953,0,10.953h3.642v-6.117c0-0.325,0.023-0.651,0.119-0.887c0.264-0.654,0.861-1.332,1.867-1.332
	c1.318,0,1.846,1.004,1.846,2.478v5.86h3.641L25.944,24.433L25.944,24.433z M10.995,11.983c1.269,0,2.06-0.842,2.06-1.893
	c-0.023-1.074-0.791-1.893-2.036-1.893s-2.06,0.818-2.06,1.893c0,1.051,0.79,1.893,2.013,1.893H10.995z M16.915,32.94
	c-8.885,0-16.087-7.203-16.087-16.088c0-8.885,7.202-16.087,16.087-16.087s16.088,7.203,16.088,16.088
	C33.003,25.738,25.8,32.94,16.915,32.94z M12.815,24.433V13.479H9.174v10.953L12.815,24.433L12.815,24.433z"/>
</svg>
