<?xml version="1.0" encoding="utf-8"?>
<!-- Generator: Adobe Illustrator 16.0.0, SVG Export Plug-In . SVG Version: 6.00 Build 0)  -->
<!DOCTYPE svg PUBLIC "-//W3C//DTD SVG 1.1//EN" "http://www.w3.org/Graphics/SVG/1.1/DTD/svg11.dtd">
<svg version="1.1" id="Capa_1" xmlns="http://www.w3.org/2000/svg" xmlns:xlink="http://www.w3.org/1999/xlink" x="0px" y="0px"
	 width="79px" height="76.939px" viewBox="0 0 79 76.939" enable-background="new 0 0 79 76.939" xml:space="preserve">
<g>
	<g id="Frame">
		<g>
			<rect fill="#85B9E5" width="79" height="76.939"/>
		</g>
	</g>
	<g id="Background">
		<g>
			<rect x="6.018" y="6.177" fill="#302C7A" width="66.808" height="64.588"/>
		</g>
	</g>
	<g id="Shadow2" opacity="0.302">
		<g>
			<polygon fill="#010202" points="58.419,31.98 48.919,34.671 36.729,23.273 23.114,24.698 22.639,37.046 19.472,54.619 
				45.119,70.768 72.825,70.768 72.825,42.587 			"/>
		</g>
	</g>
	<g id="Shadow_1_" opacity="0.302">
		<g>
			<rect x="6.018" y="6.175" fill="#010202" width="66.808" height="2.216"/>
		</g>
	</g>
	<g id="Ps">
		<g>
			<path fill="#85B9E5" d="M19.462,22.441c2.128-0.387,5.078-0.677,9.092-0.677c4.353,0,7.544,0.919,9.625,2.661
				c1.935,1.596,3.192,4.159,3.192,7.206c0,3.095-0.968,5.658-2.806,7.4c-2.369,2.369-6.094,3.481-10.302,3.481
				c-1.112,0-2.128-0.049-2.901-0.193v12.284h-5.901L19.462,22.441L19.462,22.441z M25.363,37.627
				c0.725,0.193,1.692,0.242,2.901,0.242c4.45,0,7.158-2.176,7.158-5.997c0-3.627-2.515-5.562-6.625-5.562
				c-1.645,0-2.805,0.146-3.434,0.291V37.627z"/>
			<path fill="#85B9E5" d="M44.031,49.139c1.354,0.821,3.917,1.691,6.046,1.691c2.611,0,3.772-1.063,3.772-2.61
				c0-1.597-0.968-2.42-3.87-3.435c-4.594-1.596-6.529-4.11-6.48-6.868c0-4.159,3.435-7.399,8.899-7.399
				c2.61,0,4.885,0.677,6.237,1.402l-1.16,4.208c-1.015-0.581-2.901-1.354-4.98-1.354c-2.129,0-3.288,1.016-3.288,2.466
				c0,1.499,1.11,2.226,4.11,3.289c4.255,1.547,6.237,3.725,6.288,7.206c0,4.257-3.338,7.352-9.577,7.352
				c-2.854,0-5.417-0.677-7.158-1.644L44.031,49.139z"/>
		</g>
	</g>
</g>
</svg>
