<?xml version="1.0" encoding="utf-8"?>
<!-- Generator: Adobe Illustrator 16.0.0, SVG Export Plug-In . SVG Version: 6.00 Build 0)  -->
<!DOCTYPE svg PUBLIC "-//W3C//DTD SVG 1.1//EN" "http://www.w3.org/Graphics/SVG/1.1/DTD/svg11.dtd">
<svg version="1.1" id="Capa_1" xmlns="http://www.w3.org/2000/svg" xmlns:xlink="http://www.w3.org/1999/xlink" x="0px" y="0px"
	 width="79px" height="72.354px" viewBox="0 0 79 72.354" enable-background="new 0 0 79 72.354" xml:space="preserve">
<g id="sketch-logo">
	<g id="_x32__1_">
		<g id="Page-1">
			<g id="_x32_">
				<g id="mask-3">
					<path id="path-2" fill="#FFFFFF" d="M0.848,19.659L11.733,6.169l12.861-5.5h14.88v70.966L0.848,19.659L0.848,19.659z
						 M78.104,19.659L67.217,6.169l-12.862-5.5h-14.88v70.966L78.104,19.659L78.104,19.659z"/>
				</g>
				<g id="Mask">
					
						<linearGradient id="path-2_2_" gradientUnits="userSpaceOnUse" x1="-1.4419" y1="77.4871" x2="-1.4419" y2="78.0302" gradientTransform="matrix(86 0 0 -79 163.5 6197.0586)">
						<stop  offset="0" style="stop-color:#FFF2C4"/>
						<stop  offset="1" style="stop-color:#FF8028"/>
					</linearGradient>
					<path id="path-2_1_" fill="url(#path-2_2_)" d="M0.848,19.659L11.733,6.169l12.861-5.5h14.88v70.966L0.848,19.659L0.848,19.659
						z M78.104,19.659L67.217,6.169l-12.862-5.5h-14.88v70.966L78.104,19.659L78.104,19.659z"/>
				</g>
				<g id="Path-219-Clipped">
					<g id="path-2_3_">
					</g>
					<g>
						<defs>
							<polygon id="SVGID_1_" points="1.746,1.567 2.645,1.567 1.746,2.465 							"/>
						</defs>
						<defs>
							<polygon id="SVGID_2_" points="-0.051,-0.23 -0.949,-0.23 -0.051,-1.128 							"/>
						</defs>
						<clipPath id="SVGID_3_">
							<use xlink:href="#SVGID_1_"  overflow="visible"/>
						</clipPath>
						<clipPath id="SVGID_4_" clip-path="url(#SVGID_3_)">
							<use xlink:href="#SVGID_2_"  overflow="visible"/>
						</clipPath>
						<defs>
							<filter id="Adobe_OpacityMaskFilter" filterUnits="userSpaceOnUse" x="10.02" y="-2.158" width="66.269" height="17.188">
								<feColorMatrix  type="matrix" values="1 0 0 0 0  0 1 0 0 0  0 0 1 0 0  0 0 0 1 0"/>
							</filter>
						</defs>
						<mask maskUnits="userSpaceOnUse" x="10.02" y="-2.158" width="66.269" height="17.188" id="mask-3_2_">
							<g filter="url(#Adobe_OpacityMaskFilter)">
								<path id="path-2_14_" clip-path="url(#SVGID_4_)" fill="#FFFFFF" d="M0.848,19.659L11.733,6.169l12.861-5.5h14.88v70.966
									L0.848,19.659L0.848,19.659z M78.104,19.659L67.217,6.169l-12.862-5.5h-14.88v70.966L78.104,19.659L78.104,19.659z"/>
							</g>
						</mask>
						
							<linearGradient id="Path-219_1_" gradientUnits="userSpaceOnUse" x1="-0.9409" y1="64.4929" x2="-0.9409" y2="63.5017" gradientTransform="matrix(73.7702 0 0 -19.1345 112.5387 1226.9106)">
							<stop  offset="0" style="stop-color:#F59323"/>
							<stop  offset="1" style="stop-color:#FFECA9"/>
						</linearGradient>
						<polygon id="Path-219" clip-path="url(#SVGID_4_)" mask="url(#mask-3_2_)" fill="url(#Path-219_1_)" points="10.02,6.066 
							22.292,15.03 60.383,14.232 76.289,-2.158 50.126,-1.957 16.097,-1.995 						"/>
					</g>
				</g>
				<g id="Path-218-Clipped">
					<g id="path-2_4_">
					</g>
					<defs>
						<filter id="Adobe_OpacityMaskFilter_1_" filterUnits="userSpaceOnUse" x="11.593" y="12.727" width="55.712" height="15.103">
							<feColorMatrix  type="matrix" values="1 0 0 0 0  0 1 0 0 0  0 0 1 0 0  0 0 0 1 0"/>
						</filter>
					</defs>
					<mask maskUnits="userSpaceOnUse" x="11.593" y="12.727" width="55.712" height="15.103" id="mask-6_1_">
						<g filter="url(#Adobe_OpacityMaskFilter_1_)">
							<path id="path-5_1_" fill="#FFFFFF" d="M0.848,19.659L11.733,6.169l12.861-5.5h14.88v70.966L0.848,19.659L0.848,19.659z
								 M78.104,19.659L67.217,6.169l-12.862-5.5h-14.88v70.966L78.104,19.659L78.104,19.659z"/>
						</g>
					</mask>
					
						<linearGradient id="Path-218_1_" gradientUnits="userSpaceOnUse" x1="-0.2598" y1="61.7468" x2="-0.2598" y2="60.8484" gradientTransform="matrix(62.018 0 0 -16.8132 55.559 1050.8751)">
						<stop  offset="0" style="stop-color:#FFFFFF"/>
						<stop  offset="1" style="stop-color:#F9B85B"/>
					</linearGradient>
					<polygon id="Path-218" mask="url(#mask-6_1_)" fill="url(#Path-218_1_)" points="11.593,27.83 67.305,27.83 56.991,12.727 
						21.9,12.727 					"/>
				</g>
				<g id="Path-216-Clipped">
					<g id="path-2_5_">
					</g>
					<defs>
						
							<filter id="Adobe_OpacityMaskFilter_2_" filterUnits="userSpaceOnUse" x="-14.706" y="14.041" width="54.651" height="58.312">
							<feColorMatrix  type="matrix" values="1 0 0 0 0  0 1 0 0 0  0 0 1 0 0  0 0 0 1 0"/>
						</filter>
					</defs>
					<mask maskUnits="userSpaceOnUse" x="-14.706" y="14.041" width="54.651" height="58.312" id="mask-9_1_">
						<g filter="url(#Adobe_OpacityMaskFilter_2_)">
							<path id="path-8_1_" fill="#FFFFFF" d="M0.848,19.659L11.733,6.169l12.861-5.5h14.88v70.966L0.848,19.659L0.848,19.659z
								 M78.104,19.659L67.217,6.169l-12.862-5.5h-14.88v70.966L78.104,19.659L78.104,19.659z"/>
						</g>
					</mask>
					<polygon id="Path-216" mask="url(#mask-9_1_)" fill="#F56423" points="11.655,27.567 39.945,72.353 -14.706,20.143 
						-3.785,14.041 					"/>
				</g>
				<g id="Path-216-Copy-Clipped">
					<g id="path-2_6_">
					</g>
					<defs>
						<filter id="Adobe_OpacityMaskFilter_3_" filterUnits="userSpaceOnUse" x="37.173" y="14.041" width="56.381" height="61.114">
							<feColorMatrix  type="matrix" values="1 0 0 0 0  0 1 0 0 0  0 0 1 0 0  0 0 0 1 0"/>
						</filter>
					</defs>
					<mask maskUnits="userSpaceOnUse" x="37.173" y="14.041" width="56.381" height="61.114" id="mask-11_1_">
						<g filter="url(#Adobe_OpacityMaskFilter_3_)">
							<path id="path-10_1_" fill="#FFFFFF" d="M0.848,19.659L11.733,6.169l12.861-5.5h14.88v70.966L0.848,19.659L0.848,19.659z
								 M78.104,19.659L67.217,6.169l-12.862-5.5h-14.88v70.966L78.104,19.659L78.104,19.659z"/>
						</g>
					</mask>
					<polygon id="Path-216-Copy" mask="url(#mask-11_1_)" fill="#F56423" points="67.191,27.567 37.173,75.155 93.555,20.143 
						82.633,14.041 					"/>
				</g>
				<g id="Path-214-Copy-Clipped">
					<g id="path-2_7_">
					</g>
					<defs>
						<filter id="Adobe_OpacityMaskFilter_4_" filterUnits="userSpaceOnUse" x="0.836" y="6.075" width="22.629" height="21.63">
							<feColorMatrix  type="matrix" values="1 0 0 0 0  0 1 0 0 0  0 0 1 0 0  0 0 0 1 0"/>
						</filter>
					</defs>
					<mask maskUnits="userSpaceOnUse" x="0.836" y="6.075" width="22.629" height="21.63" id="mask-13_1_">
						<g filter="url(#Adobe_OpacityMaskFilter_4_)">
							<path id="path-12_1_" fill="#FFFFFF" d="M0.848,19.659L11.733,6.169l12.861-5.5h14.88v70.966L0.848,19.659L0.848,19.659z
								 M78.104,19.659L67.217,6.169l-12.862-5.5h-14.88v70.966L78.104,19.659L78.104,19.659z"/>
						</g>
					</mask>
					
						<linearGradient id="Path-214-Copy_1_" gradientUnits="userSpaceOnUse" x1="5.8848" y1="67.946" x2="6.2884" y2="67.3829" gradientTransform="matrix(25.1908 0 0 -24.0787 -140.5616 1646.2834)">
						<stop  offset="0" style="stop-color:#FFDC65"/>
						<stop  offset="1" style="stop-color:#F56423"/>
					</linearGradient>
					<polygon id="Path-214-Copy" mask="url(#mask-13_1_)" fill="url(#Path-214-Copy_1_)" points="11.769,27.705 23.465,12.72 
						11.651,6.075 0.836,19.653 					"/>
				</g>
				<g id="Path-214-Copy-3-Clipped">
					<g id="path-2_8_">
					</g>
					<defs>
						<filter id="Adobe_OpacityMaskFilter_5_" filterUnits="userSpaceOnUse" x="55.472" y="6.075" width="22.632" height="21.63">
							<feColorMatrix  type="matrix" values="1 0 0 0 0  0 1 0 0 0  0 0 1 0 0  0 0 0 1 0"/>
						</filter>
					</defs>
					<mask maskUnits="userSpaceOnUse" x="55.472" y="6.075" width="22.632" height="21.63" id="mask-16_1_">
						<g filter="url(#Adobe_OpacityMaskFilter_5_)">
							<path id="path-15_1_" fill="#FFFFFF" d="M0.848,19.659L11.733,6.169l12.861-5.5h14.88v70.966L0.848,19.659L0.848,19.659z
								 M78.104,19.659L67.217,6.169l-12.862-5.5h-14.88v70.966L78.104,19.659L78.104,19.659z"/>
						</g>
					</mask>
					
						<linearGradient id="Path-214-Copy-3_1_" gradientUnits="userSpaceOnUse" x1="-14.9941" y1="67.946" x2="-14.5906" y2="67.3829" gradientTransform="matrix(-25.1908 0 0 -24.0787 -306.454 1646.2834)">
						<stop  offset="0" style="stop-color:#FFDC65"/>
						<stop  offset="1" style="stop-color:#F56423"/>
					</linearGradient>
					<polygon id="Path-214-Copy-3" mask="url(#mask-16_1_)" fill="url(#Path-214-Copy-3_1_)" points="67.169,27.705 55.472,12.72 
						67.287,6.075 78.104,19.653 					"/>
				</g>
			</g>
		</g>
	</g>
</g>
</svg>
