<?xml version="1.0" encoding="utf-8"?>
<!-- Generator: Adobe Illustrator 16.0.0, SVG Export Plug-In . SVG Version: 6.00 Build 0)  -->
<!DOCTYPE svg PUBLIC "-//W3C//DTD SVG 1.1//EN" "http://www.w3.org/Graphics/SVG/1.1/DTD/svg11.dtd">
<svg version="1.1" id="Capa_1" xmlns="http://www.w3.org/2000/svg" xmlns:xlink="http://www.w3.org/1999/xlink" x="0px" y="0px"
	 width="14.667px" height="16.961px" viewBox="0 0 14.667 16.961" enable-background="new 0 0 14.667 16.961" xml:space="preserve">
<path fill="#615156" d="M4.445,7.834c0.773,1.521,2.018,2.765,3.541,3.539l1.182-1.186c0.148-0.148,0.359-0.19,0.545-0.131
	c0.602,0.198,1.25,0.306,1.92,0.306c0.297,0,0.537,0.239,0.537,0.538v1.88c0,0.298-0.24,0.538-0.537,0.538
	c-5.045,0-9.135-4.09-9.135-9.135c0-0.298,0.24-0.538,0.537-0.538h1.879c0.299,0,0.539,0.239,0.539,0.538
	c0,0.669,0.107,1.316,0.307,1.918c0.059,0.185,0.016,0.397-0.133,0.545L4.445,7.834z"/>
</svg>
